<?xml version="1.0" encoding="UTF-8" standalone="no"?>
<svg width="118px" height="103px" viewBox="0 0 118 103" version="1.1" xmlns="http://www.w3.org/2000/svg" xmlns:xlink="http://www.w3.org/1999/xlink">
    <!-- Generator: Sketch 41 (35326) - http://www.bohemiancoding.com/sketch -->
    <title>bg_car</title>
    <desc>Created with Sketch.</desc>
    <defs>
        <path d="M145,122.848995 L145,167.930505 C143.868989,168.11451 142.708361,168.210169 141.525442,168.210169 L48.474558,168.210169 C36.6144871,168.210169 27,158.600651 27,146.742968 L27,144.036693 C27,132.180685 36.6174413,122.569492 48.701946,122.569492 L62.4846955,85.356068 C63.1711789,83.5025628 65.3365916,82 67.3149958,82 L122.685004,82 C124.666222,82 126.829926,83.5055473 127.515305,85.356068 L141.525442,122.569492 C142.708406,122.569492 143.86903,122.665094 145,122.848995 Z M70.8897093,95.54572 C71.1762866,94.5996829 72.207752,93.8327684 73.2006097,93.8327684 L116.79939,93.8327684 C117.789088,93.8327684 118.821271,94.591621 119.110291,95.54572 L126.272316,119.188701 L63.7276836,119.188701 L70.8897093,95.54572 Z M55.2757062,152.151412 C59.0100248,152.151412 62.0372881,149.124149 62.0372881,145.389831 C62.0372881,141.655512 59.0100248,138.628249 55.2757062,138.628249 C51.5413876,138.628249 48.5141243,141.655512 48.5141243,145.389831 C48.5141243,149.124149 51.5413876,152.151412 55.2757062,152.151412 Z M134.724294,152.151412 C138.458612,152.151412 141.485876,149.124149 141.485876,145.389831 C141.485876,141.655512 138.458612,138.628249 134.724294,138.628249 C130.989975,138.628249 127.962712,141.655512 127.962712,145.389831 C127.962712,149.124149 130.989975,152.151412 134.724294,152.151412 Z M46.8237288,169.900565 L62.0372881,169.900565 L62.0372881,177.449089 C62.0372881,181.403847 58.8294733,184.609812 54.8759915,184.609812 L53.9850254,184.609812 C50.0299505,184.609812 46.8237288,181.399982 46.8237288,177.449089 L46.8237288,169.900565 Z M127.962712,169.900565 L143.176271,169.900565 L143.176271,177.449089 C143.176271,181.403847 139.968456,184.609812 136.014975,184.609812 L135.124008,184.609812 C131.168934,184.609812 127.962712,181.399982 127.962712,177.449089 L127.962712,169.900565 Z" id="path-1"></path>
    </defs>
    <g id="Page-1" stroke="none" stroke-width="1" fill="none" fill-rule="evenodd">
        <g id="数据大屏_默认" transform="translate(-1837.000000, -658.000000)">
            <g id="Group-2" transform="translate(1810.000000, 576.000000)">
                <mask id="mask-2" fill="white">
                    <use xlink:href="#path-1"></use>
                </mask>
                <use id="bg_car" fill="#FFFFFF" opacity="0.08" xlink:href="#path-1"></use>
            </g>
        </g>
    </g>
</svg>