<?xml version="1.0" encoding="UTF-8" standalone="no"?>
<svg width="41px" height="31px" viewBox="0 0 41 31" version="1.1" xmlns="http://www.w3.org/2000/svg" xmlns:xlink="http://www.w3.org/1999/xlink">
    <!-- Generator: Sketch 41 (35326) - http://www.bohemiancoding.com/sketch -->
    <title>ic_car</title>
    <desc>Created with Sketch.</desc>
    <defs>
        <linearGradient x1="50%" y1="0%" x2="50%" y2="100%" id="linearGradient-1">
            <stop stop-color="#FFFFFF" offset="0%"></stop>
            <stop stop-color="#FBFFCC" offset="100%"></stop>
        </linearGradient>
        <path d="M258.539334,112.239051 C254.896401,112.419219 252,115.426617 252,119.110169 C252,122.90197 255.082783,125.989831 258.885589,125.989831 L286.114411,125.989831 C289.918336,125.989831 293,122.909701 293,119.110169 C293,115.434148 290.102602,112.419735 286.460675,112.239077 L282.971242,102.817606 C282.393433,101.257524 280.580715,100 278.919145,100 L266.080855,100 C264.413232,100 262.6051,101.261485 262.028758,102.817606 L258.539334,112.239051 Z M264.809545,105.476434 C265.128955,104.422011 266.277677,103.567232 267.395703,103.567232 L277.604297,103.567232 C278.713183,103.567232 279.873237,104.429244 280.190455,105.476434 L281.927684,111.211299 L263.072316,111.211299 L264.809545,105.476434 Z M260.524294,121.148588 C261.650081,121.148588 262.562712,120.235957 262.562712,119.110169 C262.562712,117.984382 261.650081,117.071751 260.524294,117.071751 C259.398507,117.071751 258.485876,117.984382 258.485876,119.110169 C258.485876,120.235957 259.398507,121.148588 260.524294,121.148588 Z M284.475706,121.148588 C285.601493,121.148588 286.514124,120.235957 286.514124,119.110169 C286.514124,117.984382 285.601493,117.071751 284.475706,117.071751 C283.349919,117.071751 282.437288,117.984382 282.437288,119.110169 C282.437288,120.235957 283.349919,121.148588 284.475706,121.148588 Z M257.976271,126.499435 L262.562712,126.499435 L262.562712,128.716638 C262.562712,129.941165 261.567523,130.93384 260.350098,130.93384 L260.188885,130.93384 C258.966892,130.93384 257.976271,129.949702 257.976271,128.716638 L257.976271,126.499435 Z M282.437288,126.499435 L287.023729,126.499435 L287.023729,128.716638 C287.023729,129.941165 286.028539,130.93384 284.811115,130.93384 L284.649902,130.93384 C283.427909,130.93384 282.437288,129.949702 282.437288,128.716638 L282.437288,126.499435 Z" id="path-2"></path>
        <mask id="mask-3" maskContentUnits="userSpaceOnUse" maskUnits="objectBoundingBox" x="0" y="0" width="41" height="30.9338404" fill="white">
            <use xlink:href="#path-2"></use>
        </mask>
    </defs>
    <g id="Page-1" stroke="none" stroke-width="1" fill="none" fill-rule="evenodd">
        <g id="数据大屏_默认" transform="translate(-252.000000, -100.000000)" stroke="#FFFFFF" stroke-width="2" fill="url(#linearGradient-1)">
            <use id="ic_car" mask="url(#mask-3)" xlink:href="#path-2"></use>
        </g>
    </g>
</svg>