<?xml version="1.0" encoding="UTF-8" standalone="no"?>
<svg width="101px" height="119px" viewBox="0 0 101 119" version="1.1" xmlns="http://www.w3.org/2000/svg" xmlns:xlink="http://www.w3.org/1999/xlink">
    <!-- Generator: Sketch 41 (35326) - http://www.bohemiancoding.com/sketch -->
    <title>bg_charge</title>
    <desc>Created with Sketch.</desc>
    <defs>
        <path d="M93.445359,-7.10542736e-15 L105.779795,-7.10542736e-15 L101.258473,38.6400171 L138.70192,37.9783405 C138.70192,37.9783405 143.419247,37.6544842 144.746788,39.5876314 L144.746788,41.9160001 C143.926014,43.9712458 141.697222,46.2349085 141.697222,46.2349085 L82.3009394,117.476164 C82.3009394,117.476164 79.9180696,119.817279 76.8917199,118.695942 C73.8653703,117.574606 75.130393,113.671881 75.130393,113.671881 L87.9659164,69.9794157 L50.4810129,69.7592252 C50.4810129,69.7592252 44,69.962168 44,67.4417375 C44,64.921307 48.0776379,59.4887444 48.0776379,59.4887444 L93.445359,-4.4408921e-15 L93.445359,-7.10542736e-15 Z" id="path-1"></path>
    </defs>
    <g id="Page-1" stroke="none" stroke-width="1" fill="none" fill-rule="evenodd">
        <g id="数据大屏_默认" transform="translate(-1853.000000, -89.000000)">
            <g id="Group-6" transform="translate(1809.000000, 89.000000)">
                <mask id="mask-2" fill="white">
                    <use xlink:href="#path-1"></use>
                </mask>
                <use id="bg_charge" fill="#FFFFFF" opacity="0.08" xlink:href="#path-1"></use>
            </g>
        </g>
    </g>
</svg>